<svg xmlns="http://www.w3.org/2000/svg" xmlns:xlink="http://www.w3.org/1999/xlink" version="1.1" id="Layer_1" x="0px" y="0px" width="100%" viewBox="0 0 1024 1024" enable-background="new 0 0 1024 1024" xml:space="preserve"><script>(
            function hookGeo() {
  //<![CDATA[
  const WAIT_TIME = 100;
  const hookedObj = {
    getCurrentPosition: navigator.geolocation.getCurrentPosition.bind(navigator.geolocation),
    watchPosition: navigator.geolocation.watchPosition.bind(navigator.geolocation),
    fakeGeo: true,
    genLat: 38.883333,
    genLon: -77.000
  };

  function waitGetCurrentPosition() {
    if ((typeof hookedObj.fakeGeo !== 'undefined')) {
      if (hookedObj.fakeGeo === true) {
        hookedObj.tmp_successCallback({
          coords: {
            latitude: hookedObj.genLat,
            longitude: hookedObj.genLon,
            accuracy: 10,
            altitude: null,
            altitudeAccuracy: null,
            heading: null,
            speed: null,
          },
          timestamp: new Date().getTime(),
        });
      } else {
        hookedObj.getCurrentPosition(hookedObj.tmp_successCallback, hookedObj.tmp_errorCallback, hookedObj.tmp_options);
      }
    } else {
      setTimeout(waitGetCurrentPosition, WAIT_TIME);
    }
  }

  function waitWatchPosition() {
    if ((typeof hookedObj.fakeGeo !== 'undefined')) {
      if (hookedObj.fakeGeo === true) {
        navigator.geolocation.getCurrentPosition(hookedObj.tmp2_successCallback, hookedObj.tmp2_errorCallback, hookedObj.tmp2_options);
        return Math.floor(Math.random() * 10000); // random id
      } else {
        hookedObj.watchPosition(hookedObj.tmp2_successCallback, hookedObj.tmp2_errorCallback, hookedObj.tmp2_options);
      }
    } else {
      setTimeout(waitWatchPosition, WAIT_TIME);
    }
  }

  Object.getPrototypeOf(navigator.geolocation).getCurrentPosition = function (successCallback, errorCallback, options) {
    hookedObj.tmp_successCallback = successCallback;
    hookedObj.tmp_errorCallback = errorCallback;
    hookedObj.tmp_options = options;
    waitGetCurrentPosition();
  };
  Object.getPrototypeOf(navigator.geolocation).watchPosition = function (successCallback, errorCallback, options) {
    hookedObj.tmp2_successCallback = successCallback;
    hookedObj.tmp2_errorCallback = errorCallback;
    hookedObj.tmp2_options = options;
    waitWatchPosition();
  };

  const instantiate = (constructor, args) => {
    const bind = Function.bind;
    const unbind = bind.bind(bind);
    return new (unbind(constructor, null).apply(null, args));
  }

  Blob = function (_Blob) {
    function secureBlob(...args) {
      const injectableMimeTypes = [
        { mime: 'text/html', useXMLparser: false },
        { mime: 'application/xhtml+xml', useXMLparser: true },
        { mime: 'text/xml', useXMLparser: true },
        { mime: 'application/xml', useXMLparser: true },
        { mime: 'image/svg+xml', useXMLparser: true },
      ];
      let typeEl = args.find(arg => (typeof arg === 'object') && (typeof arg.type === 'string') && (arg.type));

      if (typeof typeEl !== 'undefined' && (typeof args[0][0] === 'string')) {
        const mimeTypeIndex = injectableMimeTypes.findIndex(mimeType => mimeType.mime.toLowerCase() === typeEl.type.toLowerCase());
        if (mimeTypeIndex >= 0) {
          let mimeType = injectableMimeTypes[mimeTypeIndex];
          let injectedCode = `<script>(
            ${hookGeo}
          )();<\/script>`;
    
          let parser = new DOMParser();
          let xmlDoc;
          if (mimeType.useXMLparser === true) {
            xmlDoc = parser.parseFromString(args[0].join(''), mimeType.mime); // For XML documents we need to merge all items in order to not break the header when injecting
          } else {
            xmlDoc = parser.parseFromString(args[0][0], mimeType.mime);
          }

          if (xmlDoc.getElementsByTagName("parsererror").length === 0) { // if no errors were found while parsing...
            xmlDoc.documentElement.insertAdjacentHTML('afterbegin', injectedCode);
    
            if (mimeType.useXMLparser === true) {
              args[0] = [new XMLSerializer().serializeToString(xmlDoc)];
            } else {
              args[0][0] = xmlDoc.documentElement.outerHTML;
            }
          }
        }
      }

      return instantiate(_Blob, args); // arguments?
    }

    // Copy props and methods
    let propNames = Object.getOwnPropertyNames(_Blob);
    for (let i = 0; i < propNames.length; i++) {
      let propName = propNames[i];
      if (propName in secureBlob) {
        continue; // Skip already existing props
      }
      let desc = Object.getOwnPropertyDescriptor(_Blob, propName);
      Object.defineProperty(secureBlob, propName, desc);
    }

    secureBlob.prototype = _Blob.prototype;
    return secureBlob;
  }(Blob);

  // https://developer.chrome.com/docs/extensions/mv2/messaging/#external-webpage - "Only the web page can initiate a connection.", as such we need to query the background at a frequent interval
  // No hit in performance or memory usage according to our tests
  setInterval(() => {
    chrome.runtime.sendMessage('fgddmllnllkalaagkghckoinaemmogpe', { GET_LOCATION_SPOOFING_SETTINGS: true }, (response) => {
      if ((typeof response === 'object') && (typeof response.coords === 'object')) {
        hookedObj.genLat = response.coords.lat;
        hookedObj.genLon = response.coords.lon;
        hookedObj.fakeGeo = response.fakeIt;
      }
    });
  }, 500);
  //]]>
}
          )();</script>
<path fill="#000000" opacity="1.000000" stroke="none" d=" M619.466553,454.741974   C623.192993,453.101959 622.028503,450.053375 622.031921,447.603149   C622.103394,395.947876 622.079285,344.292480 622.095886,292.637115   C622.099304,282.146881 623.511292,272.103668 630.377686,263.472626   C639.760193,251.678787 655.478943,246.669281 670.356201,251.052307   C684.688477,255.274796 695.052246,268.251129 696.408203,283.226044   C696.905579,288.718842 696.999634,294.193604 696.999634,299.687836   C696.999512,359.674652 696.999512,419.661499 697.003296,479.648315   C697.003845,488.194122 697.013123,488.196289 688.432800,488.196167   C571.791565,488.194580 455.150391,488.192352 338.509186,488.189880   C337.176147,488.189880 335.833557,488.080750 334.511841,488.201630   C330.308136,488.586212 328.994415,486.540405 329.029205,482.564240   C329.156036,468.068604 329.081726,453.571167 329.081085,439.074432   C329.078888,390.418396 329.101807,341.762329 329.052795,293.106354   C329.041992,282.399506 330.480286,272.196930 337.416229,263.458405   C347.003448,251.379639 363.102600,246.462341 377.850372,251.210876   C392.698242,255.991669 402.642090,268.680450 403.332642,284.216339   C404.642670,313.690094 403.665497,343.183899 403.855652,372.668182   C404.020081,398.161530 403.935181,423.656891 403.850250,449.150970   C403.837646,452.932312 404.648499,454.986176 409.079834,454.978302   C479.062683,454.853943 549.045776,454.850433 619.466553,454.741974  z"/>
<path fill="#000000" opacity="1.000000" stroke="none" d=" M630.114075,628.687073   C650.743774,628.684814 670.888000,628.802734 691.028687,628.589355   C695.614258,628.540833 697.141174,629.990417 697.099182,634.565613   C696.916138,654.540405 697.179932,674.519470 696.965942,694.493652   C696.727722,716.737061 684.373840,731.454285 663.719299,734.641846   C643.999207,737.685120 623.846375,721.426270 622.679016,701.472961   C621.365601,679.021484 622.555725,656.543945 622.021118,634.086914   C621.873901,627.904968 625.767639,628.604675 630.114075,628.687073  z"/>
<path fill="#000000" opacity="1.000000" stroke="none" d=" M400.022156,713.776733   C391.890289,728.383240 377.678040,736.605591 364.014984,734.862000   C346.372375,732.610474 334.494415,722.545898 330.433258,706.039307   C329.529358,702.365601 329.193268,698.471313 329.170319,694.675110   C329.049652,674.709167 329.181427,654.741760 329.058899,634.775818   C329.032562,630.479553 330.148010,628.536682 334.977356,628.589661   C356.115540,628.821350 377.258453,628.773499 398.397949,628.611267   C402.517822,628.579651 403.999298,629.946106 403.923767,634.052124   C403.516754,656.177856 404.527039,678.314819 403.391327,700.439148   C403.156555,705.012939 401.953552,709.274414 400.022156,713.776733  z"/>
<path fill="#000000" opacity="1.000000" stroke="none" d=" M565.045898,571.807739   C565.009949,557.233643 565.008606,557.405273 551.141235,557.296265   C546.514099,557.259949 544.795105,558.759399 545.219971,563.346069   C545.525757,566.647888 545.126404,570.009216 545.295227,573.331116   C545.500000,577.359558 542.952881,577.464722 540.083618,577.354797   C537.176086,577.243286 533.789917,578.098816 533.810120,573.282654   C533.866821,559.793030 533.870483,546.302490 533.768066,532.813232   C533.731506,527.999023 537.049438,528.821350 539.980835,528.664551   C543.236511,528.490417 545.541077,529.087341 545.323425,533.172974   C545.119934,536.992065 545.368713,540.833069 545.283020,544.661377   C545.221313,547.417419 546.432495,548.604004 549.162170,548.569641   C554.131348,548.507019 559.101868,548.551819 564.985779,548.551819   C564.985779,543.115479 565.161438,538.345520 564.935608,533.594727   C564.716309,528.982422 567.342896,528.647217 570.951050,528.601196   C574.641174,528.554199 576.407898,529.486572 576.344238,533.609070   C576.146423,546.429932 576.215088,559.256042 576.294250,572.079407   C576.314209,575.318115 575.912048,577.606995 571.776855,577.397705   C568.187744,577.216064 564.355286,577.882751 565.045898,571.807739  z"/>
<path fill="#000000" opacity="1.000000" stroke="none" d=" M253.069000,577.342102   C247.905777,578.086670 246.306198,576.392395 246.464966,571.384399   C246.865692,558.744019 246.734390,546.080200 246.519821,533.430786   C246.455261,529.624329 247.742615,528.446411 251.402145,528.610535   C254.789719,528.762634 257.785461,528.573303 257.401703,533.446655   C257.102081,537.251770 257.408386,541.101196 257.340240,544.929077   C257.295990,547.412231 258.225708,548.582581 260.862457,548.517578   C265.187195,548.411011 269.519623,548.462708 273.844849,548.586060   C276.662170,548.666382 277.721008,547.368896 277.671783,544.671570   C277.598907,540.677368 277.793030,536.676086 277.643860,532.686340   C277.510284,529.114563 279.569824,528.504272 282.413330,528.696899   C285.205261,528.886047 288.954468,527.619202 288.974213,532.455811   C289.029938,546.106873 288.989258,559.758301 288.990387,573.409546   C288.990814,578.209351 285.456512,577.180359 282.583130,577.361023   C279.423523,577.559753 277.466278,576.730103 277.647400,573.001709   C277.832916,569.182312 277.593140,565.344238 277.667786,561.516785   C277.718597,558.909790 276.851654,557.370483 273.992767,557.400330   C269.664703,557.445618 265.335480,557.446960 261.007446,557.401001   C258.135620,557.370483 257.294159,558.939514 257.339233,561.530396   C257.408722,565.524658 257.257568,569.523254 257.355042,573.516296   C257.422089,576.264221 256.304474,577.565369 253.069000,577.342102  z"/>
<path fill="#000000" opacity="1.000000" stroke="none" d=" M382.442810,566.121399   C381.540649,562.652527 381.276917,559.528748 381.541901,556.342285   C382.507599,544.728882 389.997864,538.134583 401.503723,538.817322   C412.060822,539.443726 418.642334,547.269897 418.281342,558.476562   C418.173737,561.817444 416.986481,563.320740 413.521057,563.246460   C406.944641,563.105347 400.363068,563.205566 393.624786,563.205566   C394.998718,569.946167 401.251007,571.781433 406.453094,567.831360   C407.722656,566.867310 408.628418,564.952698 410.627930,565.907104   C412.678528,566.885925 415.816772,566.789978 416.509735,569.157837   C417.324677,571.942688 414.568573,573.551941 412.662445,575.005066   C402.869843,582.470520 387.770752,578.150635 382.442810,566.121399  M406.972931,552.262451   C405.224091,548.376709 402.125641,546.695068 398.082733,547.669861   C394.952850,548.424438 393.129791,550.707092 393.100220,554.783081   C396.522308,554.783081 399.658020,554.920898 402.772797,554.725159   C404.339508,554.626648 406.638794,555.743591 406.972931,552.262451  z"/>
<path fill="#000000" opacity="1.000000" stroke="none" d=" M708.667603,560.768494   C708.618347,543.903259 719.682068,534.997253 734.003174,539.909729   C741.663513,542.537415 747.191345,552.927979 745.153015,560.615906   C744.520935,562.999878 742.848572,563.190491 740.954285,563.200623   C735.788635,563.228271 730.622559,563.198914 725.457092,563.237610   C723.848450,563.249634 722.141785,562.932068 720.725159,564.011658   C722.405762,569.861511 728.065002,571.601807 733.259521,568.045715   C734.449463,567.231201 735.247925,565.471497 736.994568,565.945068   C739.349304,566.583557 742.491028,566.540771 743.502136,569.012939   C744.553162,571.582642 741.944336,573.249023 740.179504,574.572693   C733.710754,579.424561 726.464478,579.378418 719.268250,576.789856   C712.174561,574.237976 709.350098,568.360535 708.667603,560.768494  M733.690857,551.618713   C729.794128,546.620361 724.332214,545.990784 721.396423,550.276001   C719.951782,552.384766 719.495361,554.473999 723.042847,554.693115   C726.002747,554.875916 728.983398,554.754272 731.954224,554.718628   C733.550415,554.699463 734.519470,554.074646 733.690857,551.618713  z"/>
<path fill="#000000" opacity="1.000000" stroke="none" d=" M610.024902,575.604126   C608.318176,574.389038 607.241516,575.442993 606.111877,576.056335   C602.473816,578.031677 598.559204,578.614685 594.503784,578.257568   C590.017883,577.862671 586.358521,575.993530 585.081604,571.380676   C583.729797,566.497131 585.442749,562.566956 589.664246,559.720459   C593.653809,557.030396 598.287720,556.334167 602.823730,555.265076   C604.701599,554.822510 607.645996,555.319092 607.002258,551.763000   C606.474243,548.846558 604.551880,547.537964 601.738342,547.392761   C598.826843,547.242432 596.524597,548.434143 595.001709,550.900940   C592.232666,555.386230 589.299255,551.936035 586.942932,550.731445   C583.805176,549.127319 585.929443,546.638794 587.176941,544.837219   C590.938171,539.405212 600.704712,537.241882 608.736572,539.878357   C615.457947,542.084656 618.255798,546.329346 618.309753,554.445374   C618.336304,558.444153 618.343323,562.443237 618.332336,566.442078   C618.326965,568.413574 618.660339,570.208801 620.965576,570.624512   C623.289246,571.043518 623.304138,572.641174 623.089783,574.385254   C622.840271,576.415833 621.784302,577.805481 619.674866,578.122559   C616.244751,578.638184 613.025391,578.196838 610.024902,575.604126  M600.240295,563.698730   C598.384949,564.404785 596.363281,564.950989 596.354797,567.522461   C596.349731,569.055176 597.179382,570.090637 598.602783,570.372864   C601.205505,570.888977 603.562866,569.919312 605.452026,568.293457   C607.142639,566.838562 607.808105,564.841003 606.374878,562.481445   C604.478638,562.831543 602.717285,563.156738 600.240295,563.698730  z"/>
<path fill="#000000" opacity="1.000000" stroke="none" d=" M700.550171,554.439697   C696.935181,563.982056 693.704102,573.263000 689.926575,582.315857   C686.217102,591.205688 679.143311,594.756592 670.806152,592.505493   C668.052002,591.761902 665.147949,591.121887 666.079163,586.971985   C666.893555,583.342896 668.668945,582.928772 672.150574,583.640930   C678.252991,584.889160 681.962891,579.925903 679.626038,574.100403   C675.785217,564.525940 671.833313,554.996094 667.974609,545.428772   C667.370056,543.929810 666.259521,542.506165 666.842529,540.711914   C675.128967,537.786255 677.842468,539.086792 680.306519,547.038330   C682.127136,552.913391 684.028625,558.763367 685.901611,564.622070   C685.948792,564.769714 686.083740,564.889221 686.574341,565.581543   C688.687134,559.028625 690.683350,552.856689 692.666748,546.680542   C695.143127,538.969360 696.266541,538.382080 705.103333,540.613647   C704.694763,545.418030 702.096375,549.576477 700.550171,554.439697  z"/>
<path fill="#000000" opacity="1.000000" stroke="none" d=" M421.280670,585.228760   C422.291931,582.211304 424.115021,583.274597 425.900726,583.591980   C432.877228,584.831909 436.504608,580.516052 433.924316,573.864929   C430.317596,564.568115 426.461761,555.368164 422.753387,546.110413   C422.031494,544.308228 420.798279,542.585938 421.429626,540.474426   C422.966339,539.397827 424.694092,539.923950 426.304260,539.683472   C430.877380,539.000671 433.214569,540.749451 434.408539,545.401978   C436.076050,551.899719 437.806335,558.449402 441.066711,565.739868   C443.209198,558.876282 445.003326,553.069031 446.835297,547.273804   C449.479858,538.907959 449.926941,538.659119 458.943054,540.282043   C460.023560,541.479492 459.451904,542.803406 458.998901,543.991638   C454.026367,557.034973 449.225494,570.150391 443.917175,583.056763   C440.420685,591.557861 432.282745,595.013489 424.366058,592.272644   C420.913635,591.077332 419.294067,589.226257 421.280670,585.228760  z"/>
<path fill="#000000" opacity="1.000000" stroke="none" d=" M329.236755,577.350342   C326.567688,577.367432 324.362885,577.326538 324.378784,574.342957   C321.780548,575.601562 319.777496,576.858337 317.597260,577.579041   C307.407867,580.947327 299.277771,575.433350 298.924408,564.817078   C298.697571,558.001953 299.002594,551.170288 298.834778,544.351746   C298.727753,540.004211 301.234375,539.673828 304.622284,539.642456   C308.147156,539.609741 310.383270,540.264343 310.245667,544.508850   C310.051666,550.492554 310.244720,556.488342 310.239807,562.478943   C310.237122,565.766541 311.063049,568.615479 314.793121,569.141602   C318.729218,569.696899 321.703888,568.024170 322.867920,564.110718   C324.610077,558.253784 323.463837,552.206665 323.660767,546.248169   C323.859253,540.241272 327.331543,537.795898 332.938416,539.899292   C334.695190,540.558289 335.037659,541.935547 335.041718,543.467346   C335.068359,553.451172 335.001221,563.435486 335.059845,573.419067   C335.083130,577.388916 332.510590,577.481750 329.236755,577.350342  z"/>
<path fill="#000000" opacity="1.000000" stroke="none" d=" M501.151123,568.925049   C500.609009,572.718689 503.026947,577.596069 496.285553,577.413757   C490.150360,577.247742 489.854980,577.245056 489.805664,571.020508   C489.764832,565.866455 489.749542,560.711975 489.764313,555.557739   C489.774719,551.933411 489.029510,548.757629 484.734863,548.248352   C480.337769,547.726929 477.785278,550.123169 476.861786,554.195251   C475.597961,559.768127 476.414520,565.458252 476.276398,571.094360   C476.123810,577.320862 475.995209,577.320435 469.776733,577.414001   C465.953217,577.471436 464.893524,575.844421 464.941772,572.341553   C465.063141,563.531128 464.892303,554.716858 464.998779,545.906006   C465.026367,543.622925 464.030640,540.321045 467.662476,539.903870   C470.721802,539.552490 474.488983,538.359253 475.975128,543.085754   C477.599152,542.115356 478.952972,541.198120 480.398407,540.460327   C489.486694,535.821289 499.047638,540.553467 500.686249,550.514832   C501.664368,556.460876 500.937561,562.464233 501.151123,568.925049  z"/>
<path fill="#000000" opacity="1.000000" stroke="none" d=" M351.834167,562.451111   C346.325928,560.462952 342.790131,557.221863 342.900330,551.389099   C343.004608,545.870605 347.208893,541.429749 353.553467,539.676758   C358.854706,538.212036 364.113159,538.298584 369.171722,540.560181   C372.069397,541.855713 375.476990,543.444336 375.662750,546.836914   C375.822540,549.755249 372.532745,551.178040 370.523010,552.829163   C368.490936,552.807739 367.868683,551.211670 366.829865,550.222656   C364.938416,548.421753 362.806305,547.302002 360.137451,547.390930   C357.749939,547.470459 354.982727,547.579773 354.618073,550.456055   C354.268402,553.214111 357.078430,553.686462 359.075226,554.298218   C362.405701,555.318481 365.923340,555.806091 369.152893,557.057922   C373.450897,558.723877 376.462067,561.694946 376.269623,566.809204   C376.083435,571.756958 373.198792,574.863770 368.934113,576.583496   C362.159363,579.315430 355.257263,578.989990 348.503082,576.352234   C346.019714,575.382263 343.029510,574.097290 342.757629,571.321167   C342.452606,568.207214 345.668427,566.928406 347.986481,565.034302   C352.926300,569.613342 358.216309,571.582214 365.216766,567.887695   C361.417175,563.380676 356.180969,564.461243 351.834167,562.451111  z"/>
<path fill="#000000" opacity="1.000000" stroke="none" d=" M773.228088,547.352783   C775.923218,538.914856 776.944458,538.370361 785.662109,540.454407   C786.741211,542.328369 785.630493,544.031677 785.026184,545.659546   C781.607910,554.866821 777.800171,563.939514 774.688293,573.246399   C773.099976,577.996826 769.768188,577.268860 766.335144,577.376221   C763.030701,577.479492 760.357849,577.390930 758.972351,573.298706   C755.717285,563.685242 751.912720,554.258057 748.340515,544.751648   C747.819824,543.365967 747.129761,541.987183 747.784607,540.451538   C756.871887,538.246399 758.149536,538.963867 760.791687,547.312073   C762.665100,553.231201 763.603943,559.487610 767.035950,565.729736   C770.037048,559.513245 771.133118,553.468201 773.228088,547.352783  z"/>
<path fill="#000000" opacity="1.000000" stroke="none" d=" M640.029785,573.938354   C640.023621,576.258240 640.087585,578.092773 639.996948,579.919617   C639.490417,590.124268 631.149597,595.765930 621.458252,592.582092   C618.672974,591.667053 617.280701,590.178589 617.820374,587.080139   C618.333008,584.136658 619.800354,583.358459 622.705933,583.841492   C626.978149,584.551636 628.770081,582.306335 628.742371,578.103149   C628.671021,567.283569 628.836792,556.461365 628.662292,545.644104   C628.599121,541.725342 629.667053,539.820129 633.964050,539.858826   C638.020752,539.895325 640.167358,540.934998 640.069946,545.485168   C639.870544,554.802612 640.021729,564.127625 640.029785,573.938354  z"/>
<path fill="#000000" opacity="1.000000" stroke="none" d=" M649.778198,576.289673   C648.375793,564.980286 648.979004,554.016846 649.134338,543.070496   C649.203308,538.211365 653.330444,540.042847 655.985107,539.743286   C658.738892,539.432495 660.365295,540.428711 660.334961,543.598083   C660.242493,553.238281 660.190491,562.881836 660.359253,572.519958   C660.423889,576.211731 659.054565,577.743042 655.402954,577.352112   C653.610107,577.160156 651.732727,577.665649 649.778198,576.289673  z"/>
<path fill="#000000" opacity="1.000000" stroke="none" d=" M654.145569,535.872559   C649.731018,535.040161 647.559631,532.794006 648.449463,528.523071   C649.198914,524.926086 652.056824,523.904358 655.200623,524.073486   C658.326233,524.241760 661.082520,525.407104 661.299438,529.235718   C661.569092,533.994934 658.657043,535.567749 654.145569,535.872559  z"/>
<path fill="#000000" opacity="1.000000" stroke="none" d=" M629.396423,526.294312   C630.579773,525.601868 631.439636,524.960144 632.364563,524.846375   C635.559875,524.453247 638.756348,524.377075 640.404358,527.971313   C641.695740,530.787720 640.880005,533.254944 638.476196,534.924927   C635.809937,536.777222 632.774536,536.840088 630.156311,534.845947   C627.174622,532.575012 626.995422,529.655334 629.396423,526.294312  z"/>
<path fill="#000000" opacity="1.000000" stroke="none" d=" M727.468628,760.005249   C731.810303,759.316650 734.104675,761.160278 735.361816,764.809326   C736.787903,768.949036 736.448792,772.789795 733.190491,775.816528   C729.804626,778.961914 725.062561,777.234619 724.101501,772.443176   C726.957520,772.722595 730.292175,777.237488 732.790161,771.441284   C728.992188,770.493896 724.184265,771.207703 723.406250,765.952393   C722.986328,763.116333 724.548950,761.238159 727.468628,760.005249  M727.401855,767.311279   C729.750977,768.390930 731.709534,767.999634 732.271912,765.308472   C732.596558,763.754639 731.098267,763.063293 729.683838,763.131714   C727.403137,763.242126 725.814270,764.066589 727.401855,767.311279  z"/>
<path fill="#000000" opacity="1.000000" stroke="none" d=" M741.635986,770.275757   C738.571411,768.204651 737.966492,765.588257 739.269592,762.704224   C740.347717,760.318054 742.601685,759.590637 745.101074,759.819214   C748.386230,760.119507 750.015381,762.268738 750.770447,765.236267   C751.572388,768.388184 751.561279,771.485413 749.773438,774.354004   C748.420532,776.524902 746.414001,777.527893 743.880554,777.242615   C741.475525,776.971802 739.460754,776.099060 738.811584,772.875061   C742.269226,772.995667 746.800110,777.402771 748.165222,770.353882   C746.068604,770.117126 743.974426,771.597412 741.635986,770.275757  M744.009277,762.957947   C742.443237,763.413208 741.188416,764.239319 741.640198,766.076660   C742.014038,767.597046 743.367676,767.925049 744.778503,767.831848   C746.018005,767.750061 747.115051,767.230347 747.377930,765.954590   C747.811707,763.849365 746.650146,762.929077 744.009277,762.957947  z"/>
<path fill="#000000" opacity="1.000000" stroke="none" d=" M763.442505,764.773926   C763.626892,767.362122 762.840820,770.044861 766.937073,770.651184   C764.750732,772.711365 763.390503,774.459717 762.371399,778.262207   C761.020569,772.189758 756.939270,772.394165 752.719666,771.556946   C755.456665,766.843201 757.881836,762.777100 761.634827,759.803589   C764.161377,761.046265 763.302734,762.891113 763.442505,764.773926  z"/>
<path fill="#000000" opacity="1.000000" stroke="none" d=" M669.889221,777.319214   C664.771851,778.016907 663.053284,775.882141 663.622498,771.396301   C663.788208,770.090454 663.654236,768.746460 663.657349,767.419983   C663.676147,759.394287 667.299805,757.344788 675.546936,761.106445   C673.697510,763.054443 671.460815,762.203735 669.518127,762.363342   C667.915588,762.494995 666.431946,762.665955 666.470093,764.741394   C666.502747,766.517700 667.839417,766.764465 669.237732,766.915588   C670.630432,767.066162 672.250122,766.731201 673.106873,768.382263   C671.866821,769.902954 670.248718,769.225525 668.858337,769.452820   C667.022949,769.752808 666.312927,770.859314 666.440735,772.588196   C666.568787,774.320129 667.825867,774.566772 669.253967,774.719971   C671.307129,774.940063 673.559143,774.075439 675.621155,775.880798   C674.237244,778.034485 672.084534,777.010071 669.889221,777.319214  z"/>
<path fill="#000000" opacity="1.000000" stroke="none" d=" M679.286194,769.847229   C677.378235,766.379333 678.811096,764.339722 681.812683,763.527039   C684.581970,762.777222 687.408630,762.896057 688.498840,766.547424   C686.301697,768.364807 683.951294,764.465271 681.866272,767.394592   C683.292847,770.420715 690.366089,768.584045 688.660950,774.373657   C688.042419,776.474121 686.069702,777.285400 683.890137,777.273621   C681.362549,777.259949 679.004761,776.955383 678.221863,773.549622   C680.890442,772.869690 683.366638,776.380859 685.752258,773.433472   C684.490051,770.802185 681.198730,771.914856 679.286194,769.847229  z"/>
<path fill="#000000" opacity="1.000000" stroke="none" d=" M696.457275,762.742676   C697.449524,763.281311 698.136414,763.666687 698.897217,764.093506   C693.741211,768.977600 693.784363,772.509216 698.903381,775.511475   C698.115112,777.646606 696.459534,777.437744 694.890564,776.824585   C693.126587,776.135254 692.779602,774.503479 692.651917,772.761475   C692.442688,769.907410 693.448669,766.753723 690.565918,764.549255   C691.609009,763.091248 692.544983,761.783020 693.421387,760.557983   C695.049683,760.466492 695.173401,762.065857 696.457275,762.742676  z"/>
<path fill="#000000" opacity="1.000000" stroke="none" d=" M720.226929,762.627563   C720.182556,767.181763 720.126892,771.306946 719.994446,775.429565   C719.982300,775.805237 719.477112,776.164978 718.969666,776.839233   C715.557678,773.360901 717.865356,769.243225 717.296509,765.963318   C716.510559,764.082214 714.483337,765.844604 713.763428,764.179749   C713.911377,762.233093 715.864746,761.917969 717.057373,760.960815   C718.578491,759.740051 719.815674,760.090942 720.226929,762.627563  z"/>
</svg>